<svg xmlns="http://www.w3.org/2000/svg" viewBox="0 0 900 520" role="img" aria-label="Quasi-one-dimensional supersolid and strong correlation schematic">
  <defs>
    <linearGradient id="bg" x1="0" y1="0" x2="1" y2="1">
      <stop offset="0" stop-color="#eef5ff"/>
      <stop offset="1" stop-color="#e5eef9"/>
    </linearGradient>
  </defs>
  <rect width="900" height="520" rx="18" fill="url(#bg)"/>
  <g transform="translate(78 82)">
    <path d="M0 92 H720 M0 182 H720 M0 272 H720" stroke="#8aa3c2" stroke-width="7" stroke-linecap="round"/>
    <path d="M26 92 C68 28 110 156 152 92 C194 28 236 156 278 92 C320 28 362 156 404 92 C446 28 488 156 530 92 C572 28 614 156 656 92" fill="none" stroke="#005bac" stroke-width="9" stroke-linecap="round"/>
    <path d="M26 182 C68 246 110 118 152 182 C194 246 236 118 278 182 C320 246 362 118 404 182 C446 246 488 118 530 182 C572 246 614 118 656 182" fill="none" stroke="#005bac" stroke-width="9" stroke-linecap="round" opacity="0.78"/>
    <path d="M26 272 C68 208 110 336 152 272 C194 208 236 336 278 272 C320 208 362 336 404 272 C446 208 488 336 530 272 C572 208 614 336 656 272" fill="none" stroke="#005bac" stroke-width="9" stroke-linecap="round" opacity="0.62"/>
    <g fill="#fff" stroke="#c9822a" stroke-width="6">
      <circle cx="86" cy="92" r="14"/>
      <circle cx="206" cy="182" r="14"/>
      <circle cx="326" cy="92" r="14"/>
      <circle cx="446" cy="272" r="14"/>
      <circle cx="566" cy="182" r="14"/>
    </g>
    <path d="M94 120 L202 158 M334 120 L442 248 M454 248 L562 196" stroke="#c9822a" stroke-width="5" stroke-linecap="round" stroke-dasharray="10 10"/>
  </g>
  <text x="76" y="468" font-family="Inter, Arial" font-size="30" font-weight="800" fill="#10284a">Coupled Luther-Emery liquids: superconductivity + density wave order</text>
</svg>
