<svg xmlns="http://www.w3.org/2000/svg" viewBox="0 0 920 620" role="img" aria-label="Research goal map for quantum matter theory">
  <defs>
    <linearGradient id="bg" x1="0" y1="0" x2="1" y2="1">
      <stop offset="0" stop-color="#f7fbff"/>
      <stop offset="1" stop-color="#e9f1fb"/>
    </linearGradient>
    <linearGradient id="core" x1="0" y1="0" x2="1" y2="1">
      <stop offset="0" stop-color="#00529b"/>
      <stop offset="1" stop-color="#0f2f5f"/>
    </linearGradient>
    <linearGradient id="gold" x1="0" y1="0" x2="1" y2="1">
      <stop offset="0" stop-color="#f5c45e"/>
      <stop offset="1" stop-color="#d8971b"/>
    </linearGradient>
    <filter id="shadow" x="-20%" y="-20%" width="140%" height="140%">
      <feDropShadow dx="0" dy="14" stdDeviation="16" flood-color="#0f2544" flood-opacity="0.16"/>
    </filter>
    <marker id="arrow" markerWidth="12" markerHeight="12" refX="9" refY="6" orient="auto">
      <path d="M1 1 L11 6 L1 11 Z" fill="#5f7898"/>
    </marker>
  </defs>

  <rect width="920" height="620" rx="24" fill="url(#bg)"/>
  <g opacity="0.22" fill="none" stroke="#7ea2c9" stroke-width="1.3">
    <path d="M80 130 H840 M80 250 H840 M80 370 H840 M80 490 H840"/>
    <path d="M160 70 V550 M300 70 V550 M460 70 V550 M620 70 V550 M760 70 V550"/>
  </g>
  <g opacity="0.24" fill="none" stroke="#00529b" stroke-width="1.2">
    <path d="M118 388 C196 314 279 296 370 344 C450 386 522 372 594 305 C662 242 734 230 812 275"/>
    <path d="M136 160 C234 214 328 218 420 173 C516 127 612 128 785 190"/>
  </g>

  <g filter="url(#shadow)">
    <circle cx="460" cy="282" r="122" fill="url(#core)"/>
    <circle cx="460" cy="282" r="139" fill="none" stroke="#83b7ef" stroke-width="2.5" opacity="0.65"/>
    <circle cx="460" cy="282" r="164" fill="none" stroke="#f5c45e" stroke-width="1.8" opacity="0.45" stroke-dasharray="9 12"/>
  </g>

  <g fill="#ffffff" font-family="Arial, Helvetica, sans-serif" text-anchor="middle">
    <text x="460" y="246" font-size="30" font-weight="800">Quantum Matter</text>
    <text x="460" y="286" font-size="30" font-weight="800">Theory</text>
    <text x="460" y="326" font-size="20" font-weight="700" opacity="0.86">symmetry · topology · correlation</text>
  </g>

  <g fill="none" stroke="#5f7898" stroke-width="2.4" marker-end="url(#arrow)" opacity="0.86">
    <path d="M372 198 C306 142 260 128 209 128"/>
    <path d="M548 198 C614 142 660 128 711 128"/>
    <path d="M460 421 C460 458 460 478 460 500"/>
  </g>

  <g font-family="Arial, Helvetica, sans-serif" filter="url(#shadow)">
    <g>
      <rect x="68" y="72" width="250" height="112" rx="18" fill="#ffffff"/>
      <path d="M95 146 C130 100 178 92 224 120 C251 136 273 137 296 119" fill="none" stroke="#00529b" stroke-width="4" stroke-linecap="round"/>
      <text x="193" y="118" fill="#0f2544" font-size="28" font-weight="850" text-anchor="middle">New Physics</text>
      <text x="193" y="154" fill="#5c6878" font-size="18" font-weight="700" text-anchor="middle">emergent quantum phenomena</text>
    </g>
    <g>
      <rect x="602" y="72" width="250" height="112" rx="18" fill="#ffffff"/>
      <path d="M648 141 L681 107 L716 141 L750 107 L787 141" fill="none" stroke="#d8971b" stroke-width="4" stroke-linecap="round" stroke-linejoin="round"/>
      <text x="727" y="118" fill="#0f2544" font-size="28" font-weight="850" text-anchor="middle">New Concepts</text>
      <text x="727" y="154" fill="#5c6878" font-size="18" font-weight="700" text-anchor="middle">geometry · topology · response</text>
    </g>
    <g>
      <rect x="298" y="498" width="324" height="86" rx="18" fill="#ffffff"/>
      <path d="M352 541 H568" stroke="#00529b" stroke-width="5" stroke-linecap="round"/>
      <path d="M524 520 L568 541 L524 562" fill="none" stroke="#f5c45e" stroke-width="5" stroke-linecap="round" stroke-linejoin="round"/>
      <text x="460" y="535" fill="#0f2544" font-size="28" font-weight="850" text-anchor="middle">New Applications</text>
      <text x="460" y="566" fill="#5c6878" font-size="18" font-weight="700" text-anchor="middle">toward quantum technologies</text>
    </g>
  </g>

  <g fill="none" stroke="url(#gold)" stroke-width="3" opacity="0.72">
    <path d="M305 360 C224 408 190 477 220 548"/>
    <path d="M615 360 C696 408 730 477 700 548"/>
  </g>
  <g fill="#00529b" opacity="0.18">
    <circle cx="210" cy="452" r="20"/>
    <circle cx="710" cy="452" r="20"/>
    <circle cx="460" cy="92" r="18"/>
  </g>
</svg>
